<svg width="1600" height="2400" viewBox="0 0 1600 2400" xmlns="http://www.w3.org/2000/svg">
  <defs>
    <style>
      .frame { fill: #ffffff; stroke: #1f2937; stroke-width: 2; rx: 8; }
      .coach-section { fill: #fef3c7; stroke: #f59e0b; stroke-width: 2; rx: 8; }
      .athlete-section { fill: #dbeafe; stroke: #2563eb; stroke-width: 2; rx: 8; }
      .admin-section { fill: #f3e8ff; stroke: #9333ea; stroke-width: 2; rx: 8; }
      .shared-data { fill: #d1fae5; stroke: #10b981; stroke-width: 2; rx: 8; }
      .title { font-family: Inter, Arial, sans-serif; font-size: 18px; font-weight: 700; fill: #111827; }
      .section-title { font-family: Inter, Arial, sans-serif; font-size: 15px; font-weight: 600; }
      .text { font-family: Inter, Arial, sans-serif; font-size: 12px; fill: #374151; }
      .small-text { font-family: Inter, Arial, sans-serif; font-size: 10px; fill: #6b7280; }
      .nav-item { font-family: Inter, Arial, sans-serif; font-size: 13px; fill: #1f2937; font-weight: 500; }
      .button { fill: #2563eb; rx: 6; }
      .button-coach { fill: #f59e0b; rx: 6; }
      .button-text { font-family: Inter, Arial, sans-serif; font-size: 11px; fill: #ffffff; font-weight: 600; }
      .data-flow { stroke: #10b981; stroke-width: 3; stroke-dasharray: 8,4; fill: none; marker-end: url(#arrowgreen); }
      .alert { fill: #fef2f2; stroke: #ef4444; stroke-width: 2; rx: 6; }
      .card { fill: white; stroke: #e5e7eb; stroke-width: 1; rx: 6; }
    </style>
    <marker id="arrowgreen" markerWidth="10" markerHeight="10" refX="9" refY="3" orient="auto" markerUnits="strokeWidth">
      <path d="M0,0 L0,6 L9,3 z" fill="#10b981" />
    </marker>
  </defs>

  <!-- HEADER -->
  <text x="50" y="40" style="font-size: 24px; font-weight: 700; fill: #111827;">University Sports Team Mental Health Platform</text>
  <text x="50" y="65" style="font-size: 14px; fill: #6b7280;">Three Role-Based Experiences + Data Flow Architecture</text>

  <!-- ==================== COACH UX ==================== -->
  <rect x="30" y="100" width="1540" height="700" class="coach-section"/>
  <text x="50" y="135" class="title"> COACH DASHBOARD</text>
  
  <!-- Coach Left Nav -->
  <rect x="50" y="160" width="200" height="600" class="frame"/>
  <text x="70" y="190" style="font-size: 14px; font-weight: 600; fill: #f59e0b;">Navigation</text>
  <text x="70" y="220" class="nav-item"> Team Overview</text>
  <text x="70" y="250" class="nav-item"> Athletes</text>
  <text x="70" y="280" class="nav-item"> Assignments</text>
  <text x="70" y="310" class="nav-item"> Alerts</text>
  <text x="70" y="340" class="nav-item"> Reports</text>
  <text x="70" y="370" class="nav-item"> Admin Settings</text>
  
  <rect x="70" y="400" width="160" height="1" style="fill: #d1d5db;"/>
  <text x="70" y="425" style="font-size: 11px; fill: #6b7280;">Team: Women's Soccer</text>
  <text x="70" y="445" style="font-size: 11px; fill: #6b7280;">25 Athletes</text>

  <!-- Team Overview Dashboard -->
  <rect x="270" y="160" width="600" height="280" class="frame"/>
  <text x="290" y="190" class="section-title" style="fill: #f59e0b;">Team Mental Health Overview</text>
  
  <rect x="290" y="210" width="270" height="100" class="card"/>
  <text x="310" y="235" style="font-size: 13px; font-weight: 600; fill: #374151;">This Week's Check-ins</text>
  <text x="310" y="260" style="font-size: 24px; font-weight: 700; fill: #2563eb;">22/25</text>
  <text x="380" y="265" style="font-size: 12px; fill: #6b7280;">completed (88%)</text>
  <text x="310" y="290" class="small-text">3 athletes haven't checked in yet</text>
  
  <rect x="580" y="210" width="270" height="100" class="card"/>
  <text x="600" y="235" style="font-size: 13px; font-weight: 600; fill: #374151;">Needs Attention</text>
  <text x="600" y="260" style="font-size: 24px; font-weight: 700; fill: #ef4444;">4</text>
  <text x="650" y="265" style="font-size: 12px; fill: #6b7280;">athletes flagged</text>
  <rect x="600" y="275" width="100" height="24" class="button-coach"/>
  <text x="618" y="291" class="button-text">Review Now</text>
  
  <rect x="290" y="325" width="560" height="100" class="card"/>
  <text x="310" y="350" style="font-size: 13px; font-weight: 600; fill: #374151;">Recent Trends</text>
  <text x="310" y="375" class="text">• Sleep quality ↓ 15% across team (finals week)</text>
  <text x="310" y="395" class="text">• Stress levels ↑ in 12 athletes</text>
  <text x="310" y="415" class="text">• Overall wellbeing: 7.2/10 (↓ from 7.8 last week)</text>

  <!-- Athletes List with Status -->
  <rect x="270" y="460" width="600" height="300" class="frame"/>
  <text x="290" y="490" class="section-title" style="fill: #f59e0b;">Athletes - Quick Status</text>
  
  <rect x="290" y="505" width="560" height="50" class="card"/>
  <circle cx="310" cy="530" r="15" style="fill: #10b981;"/>
  <text x="305" y="535" style="font-size: 14px;"></text>
  <text x="340" y="525" style="font-size: 12px; font-weight: 600; fill: #111827;">Sarah Johnson</text>
  <text x="340" y="540" class="small-text">Last check-in: Today | Mental health score: 8.5/10</text>
  <rect x="720" y="515" width="110" height="22" class="button"/>
  <text x="735" y="530" class="button-text">View Profile</text>

  <rect x="290" y="565" width="560" height="50" class="alert"/>
  <circle cx="310" cy="590" r="15" style="fill: #ef4444;"/>
  <text x="305" y="595" style="font-size: 14px; fill: white;">!</text>
  <text x="340" y="585" style="font-size: 12px; font-weight: 600; fill: #991b1b;">Alex Martinez</text>
  <text x="340" y="600" class="small-text" style="fill: #991b1b;"> Missed 3 check-ins | Last: 5 days ago</text>
  <rect x="720" y="575" width="110" height="22" class="button-coach"/>
  <text x="740" y="590" class="button-text">Reach Out</text>

  <rect x="290" y="625" width="560" height="50" class="card"/>
  <circle cx="310" cy="650" r="15" style="fill: #fbbf24;"/>
  <text x="307" y="655" style="font-size: 14px;"></text>
  <text x="340" y="645" style="font-size: 12px; font-weight: 600; fill: #111827;">Jordan Lee</text>
  <text x="340" y="660" class="small-text">Check-in today: Stress 8/10, Sleep 4hrs | Flagged for review</text>
  <rect x="720" y="635" width="110" height="22" class="button"/>
  <text x="735" y="650" class="button-text">View Details</text>

  <text x="290" y="710" class="small-text">+ 22 more athletes</text>

  <!-- Create Assignment Panel -->
  <rect x="890" y="160" width="660" height="360" class="frame"/>
  <text x="910" y="190" class="section-title" style="fill: #f59e0b;">Create Weekly Assignment</text>
  
  <text x="910" y="220" style="font-size: 12px; fill: #374151; font-weight: 600;">Assignment Type:</text>
  <rect x="910" y="230" width="200" height="30" class="card"/>
  <text x="925" y="251" class="text">Mental Health Check-in </text>
  
  <text x="910" y="280" style="font-size: 12px; fill: #374151; font-weight: 600;">Title:</text>
  <rect x="910" y="290" width="620" height="30" class="card"/>
  <text x="925" y="311" class="text">Week 12: Pre-Championship Wellness Check</text>
  
  <text x="910" y="340" style="font-size: 12px; fill: #374151; font-weight: 600;">Include Parameters:</text>
  <rect x="910" y="350" width="620" height="80" class="card"/>
  <text x="925" y="373" class="text"> Sleep Quality (hours + quality rating)</text>
  <text x="925" y="393" class="text"> Stress Level (1-10 scale)</text>
  <text x="925" y="413" class="text"> Energy Level (1-10 scale)</text>
  <text x="925" y="433" class="text"> Nutrition habits</text>

  <text x="910" y="455" style="font-size: 12px; fill: #374151; font-weight: 600;">Assign to:</text>
  <rect x="910" y="465" width="200" height="30" class="card"/>
  <text x="925" y="486" class="text">Entire Team (25) </text>

  <rect x="1380" y="465" width="150" height="35" class="button-coach"/>
  <text x="1415" y="488" class="button-text">Send Assignment</text>

  <!-- Admin Settings Preview -->
  <rect x="890" y="540" width="660" height="220" class="admin-section"/>
  <text x="910" y="570" class="section-title" style="fill: #9333ea;"> Coach Admin Settings</text>
  
  <rect x="910" y="590" width="310" height="150" class="frame"/>
  <text x="930" y="615" style="font-size: 12px; font-weight: 600; fill: #374151;">Team Setup</text>
  <text x="930" y="640" class="text">• Add/Remove Athletes</text>
  <text x="930" y="660" class="text">• Import from Roster (CSV)</text>
  <text x="930" y="680" class="text">• Set Team Sport &amp; Season</text>
  <text x="930" y="700" class="text">• Assign Assistant Coaches</text>
  <rect x="930" y="710" width="100" height="22" class="button"/>
  <text x="950" y="725" class="button-text">Manage Team</text>

  <rect x="1240" y="590" width="310" height="150" class="frame"/>
  <text x="1260" y="615" style="font-size: 12px; font-weight: 600; fill: #374151;">Notifications &amp; Privacy</text>
  <text x="1260" y="640" class="text"> Daily summary email</text>
  <text x="1260" y="660" class="text"> Alert me when athlete flagged</text>
  <text x="1260" y="680" class="text"> Weekly team report</text>
  <text x="1260" y="700" class="small-text">Data retention: 2 years (configurable)</text>
  <rect x="1260" y="710" width="100" height="22" class="button"/>
  <text x="1280" y="725" class="button-text">Configure</text>


  <!-- ==================== STUDENT ATHLETE UX ==================== -->
  <rect x="30" y="850" width="1540" height="700" class="athlete-section"/>
  <text x="50" y="885" class="title"> STUDENT ATHLETE VIEW</text>
  
  <!-- Athlete Left Nav -->
  <rect x="50" y="910" width="200" height="600" class="frame"/>
  <text x="70" y="940" style="font-size: 14px; font-weight: 600; fill: #2563eb;">Navigation</text>
  <text x="70" y="970" class="nav-item"> Home</text>
  <text x="70" y="1000" class="nav-item"> My Assignments</text>
  <text x="70" y="1030" class="nav-item"> AI Wellness Coach</text>
  <text x="70" y="1060" class="nav-item"> My Progress</text>
  <text x="70" y="1090" class="nav-item"> Settings</text>
  
  <rect x="70" y="1120" width="160" height="1" style="fill: #d1d5db;"/>
  <text x="70" y="1145" style="font-size: 11px; fill: #6b7280;">Sarah Johnson</text>
  <text x="70" y="1165" style="font-size: 11px; fill: #6b7280;">Women's Soccer #14</text>

  <!-- Athlete Home Dashboard -->
  <rect x="270" y="910" width="600" height="300" class="frame"/>
  <text x="290" y="940" class="section-title" style="fill: #2563eb;">Welcome Back, Sarah!</text>
  
  <rect x="290" y="960" width="560" height="80" class="card"/>
  <text x="310" y="985" style="font-size: 13px; font-weight: 600; fill: #374151;"> Pending Assignment</text>
  <text x="310" y="1008" class="text">Week 12: Pre-Championship Wellness Check</text>
  <text x="310" y="1025" class="small-text">Due: Friday 5pm | Est. time: 5 minutes</text>
  <rect x="700" y="970" width="130" height="28" class="button"/>
  <text x="725" y="988" class="button-text">Complete Now</text>

  <rect x="290" y="1055" width="270" height="80" class="card"/>
  <text x="310" y="1080" style="font-size: 13px; font-weight: 600; fill: #374151;"> This Week</text>
  <text x="310" y="1102" class="text">3 check-ins completed </text>
  <text x="310" y="1120" class="text">1 assignment pending</text>

  <rect x="580" y="1055" width="270" height="80" class="card"/>
  <text x="600" y="1080" style="font-size: 13px; font-weight: 600; fill: #374151;"> Your Wellbeing</text>
  <text x="600" y="1102" style="font-size: 20px; font-weight: 700; fill: #10b981;">7.8/10</text>
  <text x="680" y="1107" class="small-text">This week avg</text>
  <text x="600" y="1125" class="small-text">Trending ↑ from last week</text>

  <rect x="290" y="1150" width="560" height="50" style="fill: #ecfdf5; stroke: #10b981; stroke-width: 1; rx: 6;"/>
  <text x="310" y="1175" style="font-size: 12px; fill: #065f46; font-weight: 600;"> Quick Tip from Your Coach</text>
  <text x="310" y="1193" style="font-size: 11px; fill: #065f46;">"Great work on sleep this week! Try to maintain 8+ hours through championships."</text>

  <!-- Assignment Completion Interface -->
  <rect x="270" y="1230" width="600" height="280" class="frame"/>
  <text x="290" y="1260" class="section-title" style="fill: #2563eb;">Complete Assignment: Weekly Check-in</text>
  
  <text x="290" y="1290" style="font-size: 12px; fill: #374151; font-weight: 600;">How many hours did you sleep last night?</text>
  <rect x="290" y="1300" width="120" height="35" class="card"/>
  <text x="325" y="1323" style="font-size: 16px; fill: #374151; font-weight: 600;">7.5 hrs</text>

  <text x="290" y="1355" style="font-size: 12px; fill: #374151; font-weight: 600;">Rate your sleep quality (1-10):</text>
  <rect x="290" y="1365" width="560" height="40" class="card"/>
  <circle cx="320" cy="1385" r="12" style="fill: #e5e7eb;"/>
  <circle cx="365" cy="1385" r="12" style="fill: #e5e7eb;"/>
  <circle cx="410" cy="1385" r="12" style="fill: #e5e7eb;"/>
  <circle cx="455" cy="1385" r="12" style="fill: #e5e7eb;"/>
  <circle cx="500" cy="1385" r="12" style="fill: #e5e7eb;"/>
  <circle cx="545" cy="1385" r="12" style="fill: #e5e7eb;"/>
  <circle cx="590" cy="1385" r="12" style="fill: #e5e7eb;"/>
  <circle cx="635" cy="1385" r="12" style="fill: #2563eb;"/>
  <text x="632" y="1390" style="font-size: 11px; fill: white; font-weight: 600;">8</text>
  <circle cx="680" cy="1385" r="12" style="fill: #e5e7eb;"/>
  <circle cx="725" cy="1385" r="12" style="fill: #e5e7eb;"/>

  <text x="290" y="1425" style="font-size: 12px; fill: #374151; font-weight: 600;">Current stress level (1-10):</text>
  <rect x="290" y="1435" width="560" height="40" class="card"/>
  <text x="310" y="1460" style="font-size: 14px; fill: #f59e0b; font-weight: 600;">5 - Moderate</text>

  <rect x="700" y="1475" width="150" height="30" class="button"/>
  <text x="740" y="1494" class="button-text">Submit Check-in</text>

  <!-- AI Wellness Coach Chat -->
  <rect x="890" y="910" width="660" height="300" class="frame"/>
  <text x="910" y="940" class="section-title" style="fill: #2563eb;"> AI Wellness Coach</text>
  
  <rect x="910" y="960" width="620" height="200" style="fill: #f9fafb; stroke: #e5e7eb; stroke-width: 1; rx: 6;"/>
  
  <rect x="925" y="975" width="380" height="50" style="fill: #dbeafe; stroke: #3b82f6; stroke-width: 1; rx: 6;"/>
  <text x="940" y="995" style="font-size: 11px; fill: #1e40af;">You:</text>
  <text x="940" y="1013" style="font-size: 11px; fill: #1e3a8a;">"I'm feeling really anxious about the championship game"</text>

  <rect x="1125" y="1040" width="390" height="70" style="fill: white; stroke: #d1d5db; stroke-width: 1; rx: 6;"/>
  <text x="1140" y="1060" style="font-size: 11px; fill: #6366f1; font-weight: 600;">AI Coach:</text>
  <text x="1140" y="1078" style="font-size: 10px; fill: #374151;">"That's completely normal before a big game. Let's work through</text>
  <text x="1140" y="1093" style="font-size: 10px; fill: #374151;">some breathing exercises together. Would you like to try a</text>
  <text x="1140" y="1108" style="font-size: 10px; fill: #374151;">5-minute guided session?"</text>

  <rect x="910" y="1175" width="500" height="32" class="card"/>
  <text x="925" y="1196" class="text">Type your message...</text>
  <rect x="1420" y="1179" width="90" height="24" class="button"/>
  <text x="1448" y="1195" class="button-text">Send</text>

  <!-- Athlete Settings -->
  <rect x="890" y="1230" width="660" height="280" class="admin-section"/>
  <text x="910" y="1260" class="section-title" style="fill: #9333ea;"> My Privacy Settings</text>
  
  <rect x="910" y="1280" width="310" height="210" class="frame"/>
  <text x="930" y="1305" style="font-size: 12px; font-weight: 600; fill: #374151;">Data Sharing Preferences</text>
  <text x="930" y="1330" class="text"> Share check-in data with my coach</text>
  <text x="930" y="1350" class="small-text" style="margin-left: 20px;">   (Required for team participation)</text>
  <text x="930" y="1375" class="text"> Share progress trends with coach</text>
  <text x="930" y="1395" class="text"> Share AI chat summaries with coach</text>
  <text x="930" y="1410" class="small-text" style="margin-left: 20px;">   (Only summaries, not full conversations)</text>
  <text x="930" y="1435" class="text"> Include my data in team analytics</text>
  <text x="930" y="1450" class="small-text" style="margin-left: 20px;">   (Anonymous aggregation only)</text>
  <rect x="930" y="1465" width="100" height="22" class="button"/>
  <text x="955" y="1480" class="button-text">Save Settings</text>

  <rect x="1240" y="1280" width="310" height="210" class="frame"/>
  <text x="1260" y="1305" style="font-size: 12px; font-weight: 600; fill: #374151;">Crisis Resources</text>
  <text x="1260" y="1330" class="text"> 24/7 Crisis Support</text>
  <text x="1260" y="1350" class="small-text">Student Counseling: (555) 123-4567</text>
  <text x="1260" y="1370" class="small-text">Crisis Text Line: Text HOME to 741741</text>
  <rect x="1260" y="1385" width="150" height="22" style="fill: #ef4444; rx: 6;"/>
  <text x="1285" y="1400" class="button-text">Emergency Contact</text>
  <text x="1260" y="1425" class="small-text" style="font-style: italic;">All conversations are confidential unless</text>
  <text x="1260" y="1440" class="small-text" style="font-style: italic;">you indicate immediate safety concerns</text>


  <!-- ==================== DATA FLOW & ARCHITECTURE ==================== -->
  <rect x="30" y="1600" width="1540" height="750" class="shared-data"/>
  <text x="50" y="1635" class="title"> DATA FLOW &amp; SHARED ARCHITECTURE</text>
  
  <!-- Central Database -->
  <rect x="650" y="1680" width="300" height="150" class="frame"/>
  <text x="720" y="1715" style="font-size: 16px; font-weight: 700; fill: #111827;">Central Database</text>
  <text x="670" y="1745" style="font-size: 12px; fill: #374151; font-weight: 600;">Shared Data:</text>
  <text x="670" y="1765" class="text">• Athlete profiles &amp; roster</text>
  <text x="670" y="1782" class="text">• Check-in responses &amp; timestamps</text>
  <text x="670" y="1799" class="text">• Assignment status &amp; completion</text>
  <text x="670" y="1816" class="text">• Privacy settings &amp; permissions</text>

  <!-- Data Flows -->
  <!-- Coach writes assignments -->
  <path d="M 250 700 Q 400 1400 650 1720" class="data-flow"/>
  <text x="350" y="1100" class="text" style="fill: #10b981; font-weight: 600;">Coach creates</text>
  <text x="350" y="1115" class="text" style="fill: #10b981; font-weight: 600;">assignments</text>

  <!-- Assignments flow to athletes -->
  <path d="M 950 1720 Q 1100 1400 600 1050" class="data-flow"/>
  <text x="850" y="1350" class="text" style="fill: #10b981; font-weight: 600;">Assignments</text>
  <text x="850" y="1365" class="text" style="fill: #10b981; font-weight: 600;">appear for athletes</text>

  <!-- Athlete submits data -->
  <path d="M 600 1230 Q 600 1400 650 1680" class="data-flow"/>
  <text x="480" y="1450" class="text" style="fill: #10b981; font-weight: 600;">Athletes submit</text>
  <text x="480" y="1465" class="text" style="fill: #10b981; font-weight: 600;">check-in data</text>

  <!-- Data flows to coach dashboard -->
  <path d="M 800 1680 Q 700 1200 550 800" class="data-flow"/>
  <text x="650" y="1200" class="text" style="fill: #10b981; font-weight: 600;">Aggregated data</text>
  <text x="650" y="1215" class="text" style="fill: #10b981; font-weight: 600;">&amp; alerts to coach</text>

  <!-- Privacy Layer -->
  <rect x="1050" y="1680" width="480" height="150" class="frame"/>
  <text x="1070" y="1715" style="font-size: 15px; font-weight: 700; fill: #9333ea;"> Privacy &amp; Permissions Layer</text>
  <text x="1070" y="1745" class="text">Filters data based on athlete consent:</text>
  <text x="1070" y="1765" class="text">• Required sharing: Assignment responses</text>
  <text x="1070" y="1782" class="text">• Optional: AI chat summaries (not content)</text>
  <text x="1070" y="1799" class="text">• Anonymous: Team analytics aggregation</text>
  <text x="1070" y="1816" class="text">• Encrypted: All mental health parameters</text>

  <!-- Alert System -->
  <rect x="100" y="1880" width="420" height="180" class="alert"/>
  <text x="120" y="1915" style="font-size: 15px; font-weight: 700; fill: #991b1b;"> Automated Alert System</text>
  <text x="120" y="1945" style="font-size: 12px; fill: #7f1d1d; font-weight: 600;">Triggers coach notifications when:</text>
  <text x="120" y="1968" class="text" style="fill: #7f1d1d;">• Athlete misses 2+ consecutive check-ins</text>
  <text x="120" y="1985" class="text" style="fill: #7f1d1d;">• Mental health score drops below threshold (5/10)</text>
  <text x="120" y="2002" class="text" style="fill: #7f1d1d;">• Stress or anxiety rated 8+ for 3+ days</text>
  <text x="120" y="2019" class="text" style="fill: #7f1d1d;">• Sleep &lt; 5 hours for consecutive nights</text>
  <text x="120" y="2036" class="text" style="fill: #7f1d1d;">• Athlete uses crisis keywords in AI chat</text>

  <!-- AI Coach System -->
  <rect x="560" y="1880" width="420" height="180" class="frame"/>
  <text x="580" y="1915" style="font-size: 15px; font-weight: 700; fill: #2563eb;"> AI Wellness Coach</text>
  <text x="580" y="1945" style="font-size: 12px; fill: #374151; font-weight: 600;">Capabilities:</text>
  <text x="580" y="1968" class="text">• 24/7 conversational support for athletes</text>
  <text x="580" y="1985" class="text">• Personalized coping strategies &amp; resources</text>
  <text x="580" y="2002" class="text">• Guided breathing/mindfulness exercises</text>
  <text x="580" y="2019" class="text">• Crisis detection → immediate resources</text>
  <text x="580" y="2036" class="text">• Optional summary sharing (no full transcripts)</text>

  <!-- Compliance & Security -->
  <rect x="1020" y="1880" width="510" height="180" class="frame"/>
  <text x="1040" y="1915" style="font-size: 15px; font-weight: 700; fill: #9333ea;"> Compliance &amp; Security</text>
  <text x="1040" y="1945" style="font-size: 12px; fill: #374151; font-weight: 600;">Built for university requirements:</text>
  <text x="1040" y="1968" class="text">• FERPA compliant (student data protection)</text>
  <text x="1040" y="1985" class="text">• HIPAA considerations for health data</text>
  <text x="1040" y="2002" class="text">• Role-based access control (coach vs athlete)</text>
  <text x="1040" y="2019" class="text">• End-to-end encryption for sensitive data</text>
  <text x="1040" y="2036" class="text">• Audit logs for all data access</text>
  <text x="1040" y="2053" class="text">• Configurable data retention policies</text>

  <!-- Key Features Summary -->
  <rect x="100" y="2110" width="1430" height="220" class="frame"/>
  <text x="120" y="2145" style="font-size: 16px; font-weight: 700; fill: #111827;"> KEY PLATFORM FEATURES</text>
  
  <rect x="120" y="2165" width="340" height="150" class="card"/>
  <text x="140" y="2190" style="font-size: 13px; font-weight: 600; fill: #f59e0b;">For Coaches:</text>
  <text x="140" y="2212" class="text"> Team dashboard with real-time status</text>
  <text x="140" y="2229" class="text"> Individual athlete profiles &amp; trends</text>
  <text x="140" y="2246" class="text"> Custom assignment creation</text>
  <text x="140" y="2263" class="text"> Automated alerts for at-risk athletes</text>
  <text x="140" y="2280" class="text"> Privacy-respecting data access</text>
  <text x="140" y="2297" class="text"> Team analytics &amp; reporting</text>

  <rect x="480" y="2165" width="340" height="150" class="card"/>
  <text x="500" y="2190" style="font-size: 13px; font-weight: 600; fill: #2563eb;">For Student Athletes:</text>
  <text x="500" y="2212" class="text"> Simple check-in assignments (5 min)</text>
  <text x="500" y="2229" class="text"> 24/7 AI wellness coach access</text>
  <text x="500" y="2246" class="text"> Personal progress tracking</text>
  <text x="500" y="2263" class="text"> Granular privacy controls</text>
  <text x="500" y="2280" class="text"> Crisis resources &amp; support</text>
  <text x="500" y="2297" class="text"> Confidential AI conversations</text>

  <rect x="840" y="2165" width="340" height="150" class="card"/>
  <text x="860" y="2190" style="font-size: 13px; font-weight: 600; fill: #10b981;">Shared Benefits:</text>
  <text x="860" y="2212" class="text"> Early intervention for mental health</text>
  <text x="860" y="2229" class="text"> Reduced stigma (private check-ins)</text>
  <text x="860" y="2246" class="text"> Data-driven team support</text>
  <text x="860" y="2263" class="text"> Scalable across multiple teams</text>
  <text x="860" y="2280" class="text"> University compliance ready</text>
  <text x="860" y="2297" class="text"> Mobile-first design</text>

  <rect x="1200" y="2165" width="340" height="150" class="card"/>
  <text x="1220" y="2190" style="font-size: 13px; font-weight: 600; fill: #9333ea;">Admin Features:</text>
  <text x="1220" y="2212" class="text"> Team roster management</text>
  <text x="1220" y="2229" class="text"> Multi-sport support</text>
  <text x="1220" y="2246" class="text"> Notification preferences</text>
  <text x="1220" y="2263" class="text"> Data retention controls</text>
  <text x="1220" y="2280" class="text"> Role assignment (coaches/staff)</text>
  <text x="1220" y="2297" class="text"> Export capabilities for reporting</text>

</svg>